<svg width="300" height="60" viewBox="0 0 300 60" fill="none" xmlns="http://www.w3.org/2000/svg">
<rect width="300" height="60" fill="#67A5ED"/>
<path d="M23.284 20.004C24.556 18.732 25.996 17.772 27.604 17.124C29.236 16.452 30.928 16.116 32.68 16.116C34.408 16.116 36.076 16.452 37.684 17.124C39.316 17.772 40.768 18.732 42.04 20.004L32.644 29.364L42.04 38.76C40.768 40.032 39.316 41.004 37.684 41.676C36.076 42.324 34.408 42.648 32.68 42.648C30.928 42.648 29.236 42.324 27.604 41.676C25.996 41.004 24.556 40.032 23.284 38.76C22.012 37.488 21.04 36.048 20.368 34.44C19.72 32.808 19.396 31.116 19.396 29.364C19.396 27.636 19.72 25.968 20.368 24.36C21.04 22.728 22.012 21.276 23.284 20.004ZM55.2033 16.8C57.0513 16.8 58.7553 17.256 60.3153 18.168C61.8993 19.08 63.1473 20.328 64.0593 21.912C64.9953 23.472 65.4633 25.188 65.4633 27.06C65.4633 28.668 65.1153 30.168 64.4193 31.56C63.7233 32.952 62.7633 34.128 61.5393 35.088L65.2473 42.036H43.1073V16.8H55.2033ZM87.7873 16.764V25.26H82.5673V26.34H87.7873V32.388H82.5673V33.468H87.7873V41.964H66.9073V16.764H87.7873ZM103.724 15.036L119.636 42H87.8123L103.724 15.036ZM132.919 42.036H120.319V29.436H115.099V16.8H137.815V29.436H132.919V42.036ZM160.49 16.764V25.26H155.27V26.34H160.49V32.388H155.27V33.468H160.49V41.964H139.61V16.764H160.49ZM203.081 29.364C203.081 31.788 202.481 34.02 201.281 36.06C200.105 38.1 198.497 39.72 196.457 40.92C194.417 42.096 192.185 42.684 189.761 42.684C187.337 42.684 185.105 42.096 183.065 40.92C181.025 39.72 179.405 38.1 178.205 36.06C177.029 34.02 176.441 31.788 176.441 29.364C176.441 27.204 176.921 25.176 177.881 23.28C178.865 21.384 180.209 19.812 181.913 18.564C183.617 17.316 185.525 16.524 187.637 16.188C188.237 16.092 188.921 16.044 189.689 16.044C192.089 16.044 194.333 16.632 196.421 17.808L189.761 29.364H203.081ZM215.451 15.036L231.363 42H199.539L215.451 15.036ZM231.262 15.828L243.862 25.368L256.462 15.828L256.534 42H231.334L231.262 15.828ZM279.459 16.764V25.26H274.239V26.34H279.459V32.388H274.239V33.468H279.459V41.964H258.579V16.764H279.459Z" fill="white"/>
</svg>
