<svg width="300" height="60" viewBox="0 0 300 60" fill="none" xmlns="http://www.w3.org/2000/svg">
<rect width="300" height="60" fill="#67A5ED"/>
<path d="M68.028 31.56C68.028 33.936 67.428 35.976 66.228 37.68C65.052 39.384 63.504 40.668 61.584 41.532C59.688 42.396 57.648 42.828 55.464 42.828C53.304 42.828 51.264 42.396 49.344 41.532C47.424 40.668 45.864 39.384 44.664 37.68C43.488 35.976 42.9 33.936 42.9 31.56V26.268H54.816V30.768H55.896V16.764H68.028V31.56ZM82.8583 15.936C85.2823 15.936 87.5263 16.536 89.5903 17.736C91.6543 18.936 93.2863 20.568 94.4863 22.632C95.6863 24.696 96.2863 26.94 96.2863 29.364C96.2863 31.788 95.6863 34.032 94.4863 36.096C93.2863 38.16 91.6543 39.792 89.5903 40.992C87.5263 42.192 85.2823 42.792 82.8583 42.792C80.4343 42.792 78.1903 42.192 76.1263 40.992C74.0623 39.792 72.4303 38.16 71.2303 36.096C70.0303 34.032 69.4303 31.788 69.4303 29.364C69.4303 26.94 70.0303 24.696 71.2303 22.632C72.4303 20.568 74.0623 18.936 76.1263 17.736C78.1903 16.536 80.4343 15.936 82.8583 15.936ZM110.992 16.8V42H97.8878V16.8H110.992ZM125.818 26.088V16.8H138.346V42H113.146V16.188L125.818 26.088ZM180.905 29.364C180.905 31.788 180.305 34.02 179.105 36.06C177.929 38.1 176.321 39.72 174.281 40.92C172.241 42.096 170.009 42.684 167.585 42.684C165.161 42.684 162.929 42.096 160.889 40.92C158.849 39.72 157.229 38.1 156.029 36.06C154.853 34.02 154.265 31.788 154.265 29.364C154.265 27.204 154.745 25.176 155.705 23.28C156.689 21.384 158.033 19.812 159.737 18.564C161.441 17.316 163.349 16.524 165.461 16.188C166.061 16.092 166.745 16.044 167.513 16.044C169.913 16.044 172.157 16.632 174.245 17.808L167.585 29.364H180.905ZM193.275 15.036L209.187 42H177.363L193.275 15.036ZM209.086 15.828L221.686 25.368L234.286 15.828L234.358 42H209.158L209.086 15.828ZM257.283 16.764V25.26H252.063V26.34H257.283V32.388H252.063V33.468H257.283V41.964H236.403V16.764H257.283Z" fill="white"/>
</svg>
