<svg width="294" height="230" viewBox="0 0 294 230" fill="none" xmlns="http://www.w3.org/2000/svg">
<path d="M80.336 169.072L52.112 216.88L44.688 204.4C40.848 198.085 37.9893 193.307 36.112 190.064L34.704 191.408L39.248 199.088L28.56 216.88L0.336 169.072H80.336ZM103.84 169.2V214H80.5435V169.2H103.84ZM138.71 214.064H116.31V191.664H107.03V169.2H147.414V191.664H138.71V214.064ZM172.11 169.136V185.648H174.03V169.136H195.47V213.936H174.03V197.424H172.11V213.936H150.67V169.136H172.11ZM248.277 169.2V214H224.981V169.2H248.277ZM283.148 214.064H260.748V191.664H251.468V169.2H291.852V191.664H283.148V214.064Z" fill="black"/>
<path d="M97.272 29.44C97.272 33.664 96.2053 37.2907 94.072 40.32C91.9813 43.3493 89.2293 45.632 85.816 47.168C82.4453 48.704 78.8187 49.472 74.936 49.472C71.096 49.472 67.4693 48.704 64.056 47.168C60.6427 45.632 57.8693 43.3493 55.736 40.32C53.6453 37.2907 52.6 33.664 52.6 29.44V20.032H73.784V28.032H75.704V3.136H97.272V29.44ZM100.789 3.072H145.589V26.496C145.589 30.5493 144.586 34.304 142.581 37.76C140.576 41.1733 137.845 43.8827 134.389 45.888C130.976 47.8933 127.242 48.896 123.189 48.896C119.136 48.896 115.381 47.8933 111.925 45.888C108.512 43.8827 105.802 41.1733 103.797 37.76C101.792 34.304 100.789 30.5493 100.789 26.496V3.072ZM192.306 3.2V25.728H184.498V26.176C187.271 26.7733 189.383 28.0747 190.834 30.08C192.285 32.0427 193.01 34.2827 193.01 36.8C193.01 38.72 192.562 40.5547 191.666 42.304C190.813 44.0107 189.554 45.3973 187.89 46.464C186.269 47.5307 184.327 48.064 182.066 48.064H148.722V25.728H157.746V25.28C154.589 24.6827 152.093 23.424 150.258 21.504C148.466 19.584 147.57 17.1947 147.57 14.336C147.57 12.416 148.061 10.6027 149.042 8.896C150.066 7.18933 151.431 5.824 153.138 4.8C154.845 3.73333 156.701 3.2 158.706 3.2H192.306ZM226.335 48.064H203.935V25.664H194.655V3.2H235.039V25.664H226.335V48.064Z" fill="black"/>
<path d="M82.424 84.2C85.7093 84.2 88.7387 85.0107 91.512 86.632C94.328 88.2533 96.5467 90.472 98.168 93.288C99.832 96.0613 100.664 99.112 100.664 102.44C100.664 105.299 100.045 107.965 98.808 110.44C97.5707 112.915 95.864 115.005 93.688 116.712L100.28 129.064H60.92V84.2H82.424ZM125.887 82.664C130.196 82.664 134.186 83.7307 137.855 85.864C141.524 87.9973 144.426 90.8987 146.559 94.568C148.692 98.2373 149.759 102.227 149.759 106.536C149.759 110.845 148.692 114.835 146.559 118.504C144.426 122.173 141.524 125.075 137.855 127.208C134.186 129.341 130.196 130.408 125.887 130.408C121.578 130.408 117.588 129.341 113.919 127.208C110.25 125.075 107.348 122.173 105.215 118.504C103.082 114.835 102.015 110.845 102.015 106.536C102.015 102.227 103.082 98.2373 105.215 94.568C107.348 90.8987 110.25 87.9973 113.919 85.864C117.588 83.7307 121.578 82.664 125.887 82.664ZM187.486 106.6V129H152.67V84.2H175.07V106.6H187.486ZM225.923 106.6V129H191.107V84.2H213.507V106.6H225.923Z" fill="black"/>
<path d="M147.62 85.4512C148.422 85.6609 149.242 85.1811 149.451 84.3796L152.867 71.3189C153.077 70.5174 152.597 69.6978 151.795 69.4882C150.994 69.2786 150.174 69.7583 149.965 70.5598L146.928 82.1693L135.319 79.133C134.517 78.9234 133.698 79.4032 133.488 80.2046C133.278 81.0061 133.758 81.8258 134.56 82.0354L147.62 85.4512ZM106 84.0001C107.373 84.603 107.373 84.6035 107.373 84.6037C107.373 84.6036 107.373 84.6037 107.373 84.6035C107.373 84.603 107.374 84.6019 107.375 84.6002C107.376 84.5969 107.379 84.5911 107.382 84.5829C107.39 84.5665 107.401 84.5407 107.417 84.5058C107.449 84.4361 107.498 84.3304 107.563 84.1925C107.694 83.9165 107.892 83.5118 108.152 83.0082C108.674 81.9999 109.448 80.6006 110.449 79.0465C112.466 75.913 115.337 72.2616 118.846 69.8635C122.309 67.4977 126.295 66.4028 130.78 68.1055C135.373 69.8492 140.775 74.6274 146.705 84.7578L149.295 83.2423C143.225 72.8727 137.377 67.4009 131.845 65.3008C126.205 63.1598 121.191 64.6274 117.154 67.3866C113.163 70.1135 110.034 74.1496 107.926 77.4224C106.865 79.0714 106.044 80.5549 105.488 81.6287C105.21 82.1661 104.997 82.6022 104.853 82.9067C104.78 83.0591 104.725 83.1786 104.687 83.2615C104.669 83.303 104.654 83.3354 104.644 83.3581C104.639 83.3695 104.635 83.3785 104.632 83.385C104.63 83.3882 104.629 83.3909 104.628 83.3929C104.628 83.3939 104.627 83.3949 104.627 83.3954C104.627 83.3963 104.627 83.3971 106 84.0001Z" fill="black"/>
<path d="M106.551 128.552C105.752 128.336 104.928 128.808 104.711 129.608L101.182 142.638C100.966 143.438 101.438 144.262 102.238 144.478C103.037 144.695 103.861 144.222 104.078 143.423L107.215 131.84L118.797 134.977C119.597 135.193 120.421 134.721 120.637 133.921C120.854 133.122 120.381 132.298 119.582 132.081L106.551 128.552ZM148.157 130.367C146.789 129.752 146.789 129.751 146.79 129.751C146.79 129.751 146.79 129.751 146.789 129.751C146.789 129.752 146.789 129.753 146.788 129.754C146.786 129.758 146.784 129.763 146.78 129.772C146.773 129.788 146.761 129.814 146.745 129.848C146.712 129.918 146.663 130.023 146.596 130.16C146.463 130.435 146.262 130.838 145.997 131.339C145.466 132.343 144.68 133.735 143.666 135.28C141.621 138.396 138.718 142.021 135.188 144.388C131.706 146.724 127.71 147.784 123.239 146.042C118.662 144.259 113.301 139.434 107.46 129.253L104.858 130.747C110.837 141.167 116.637 146.689 122.15 148.837C127.771 151.027 132.797 149.604 136.859 146.88C140.873 144.189 144.038 140.18 146.174 136.927C147.25 135.287 148.083 133.811 148.648 132.742C148.931 132.207 149.148 131.773 149.295 131.47C149.369 131.318 149.425 131.199 149.463 131.116C149.483 131.075 149.498 131.043 149.508 131.02C149.513 131.009 149.517 131 149.52 130.994C149.522 130.99 149.523 130.988 149.524 130.986C149.524 130.985 149.525 130.984 149.525 130.983C149.525 130.982 149.526 130.982 148.157 130.367Z" fill="black"/>
</svg>
